<svg  xmlns="http://www.w3.org/2000/svg"
	 viewBox="0 0 176.5 59" style="enable-background:new 0 0 176.5 59;">
<style type="text/css">
	.st0{fill:#FFFFFF;}
</style>
<g>
	<g>
		<g>
			<path d="M162.2,0h-148c-0.5,0-1.1,0-1.6,0c-0.5,0-0.9,0-1.4,0c-1,0-2,0.1-2.9,0.3c-1,0.2-1.9,0.5-2.8,0.9c-0.9,0.5-1.7,1-2.4,1.7
				C2.5,3.6,1.9,4.4,1.5,5.3C1,6.2,0.7,7.1,0.5,8.1c-0.2,1-0.3,2-0.3,2.9c0,0.5,0,0.9,0,1.4v34c0,0.5,0,0.9,0,1.4c0,1,0.1,2,0.3,2.9
				c0.2,1,0.5,1.9,0.9,2.8c0.4,0.9,1,1.7,1.7,2.4c0.7,0.7,1.5,1.3,2.4,1.7c0.9,0.4,1.8,0.8,2.8,0.9c1,0.2,2,0.2,2.9,0.3
				c0.5,0,0.9,0,1.4,0c0.5,0,1.1,0,1.6,0h148c0.5,0,1.1,0,1.6,0c0.4,0,0.9,0,1.4,0c1,0,2-0.1,2.9-0.3c1-0.2,1.9-0.5,2.8-0.9
				c0.9-0.4,1.7-1,2.4-1.7c0.7-0.7,1.3-1.5,1.7-2.4c0.4-0.9,0.8-1.8,0.9-2.8c0.2-1,0.3-2,0.3-2.9c0-0.5,0-0.9,0-1.4
				c0-0.5,0-1.1,0-1.6V14c0-0.5,0-1.1,0-1.6c0-0.5,0-0.9,0-1.4c0-1-0.1-2-0.3-2.9c-0.2-1-0.5-1.9-0.9-2.8c-0.9-1.8-2.3-3.2-4.1-4.1
				c-0.9-0.4-1.8-0.8-2.8-0.9c-1-0.2-2-0.2-2.9-0.3c-0.4,0-0.9,0-1.4,0C163.3,0,162.8,0,162.2,0L162.2,0z"/>
			<path class="st0" d="M12.7,57.5c-0.4,0-0.9,0-1.3,0c-0.9,0-1.8-0.1-2.7-0.2c-0.8-0.1-1.7-0.4-2.4-0.8c-0.8-0.4-1.5-0.9-2.1-1.5
				c-0.6-0.6-1.1-1.3-1.5-2.1c-0.4-0.8-0.7-1.6-0.8-2.4c-0.2-0.9-0.2-1.8-0.2-2.8c0-0.3,0-1.3,0-1.3v-34c0,0,0-1,0-1.3
				c0-0.9,0.1-1.8,0.2-2.8c0.1-0.9,0.4-1.7,0.8-2.4C3,5.1,3.5,4.5,4.1,3.9c0.6-0.6,1.3-1.1,2.1-1.5C6.9,2,7.7,1.7,8.6,1.5
				c0.9-0.1,1.8-0.2,2.8-0.2l1.3,0h151.2l1.3,0c0.9,0,1.8,0.1,2.7,0.2c0.9,0.1,1.7,0.4,2.5,0.8c1.5,0.8,2.8,2,3.6,3.6
				c0.4,0.8,0.6,1.6,0.8,2.4c0.2,0.9,0.2,1.8,0.3,2.8c0,0.4,0,0.9,0,1.3c0,0.6,0,1.1,0,1.6v30.8c0,0.5,0,1.1,0,1.6
				c0,0.5,0,0.9,0,1.4c0,0.9-0.1,1.8-0.3,2.7c-0.1,0.9-0.4,1.7-0.8,2.5c-0.4,0.8-0.9,1.4-1.5,2c-0.6,0.6-1.3,1.1-2.1,1.5
				c-0.8,0.4-1.6,0.7-2.5,0.8c-0.9,0.1-1.8,0.2-2.7,0.2c-0.4,0-0.9,0-1.3,0l-1.6,0L12.7,57.5z"/>
		</g>
		<g id="_Group_">
			<g id="_Group_2">
				<g id="_Group_3">
					<path id="_Path_" d="M37,29.3c0-2.6,1.4-5,3.6-6.4c-1.4-2-3.7-3.2-6.1-3.3c-2.6-0.3-5.1,1.5-6.4,1.5c-1.3,0-3.3-1.5-5.5-1.5
						c-2.9,0.1-5.5,1.7-6.8,4.2c-3,5.1-0.8,12.6,2.1,16.8c1.4,2,3.1,4.3,5.2,4.2c2.1-0.1,2.9-1.4,5.5-1.4c2.5,0,3.3,1.4,5.5,1.3
						c2.3,0,3.7-2,5.1-4.1c1-1.4,1.8-3,2.3-4.7C38.8,34.8,37,32.2,37,29.3z"/>
					<path id="_Path_2" d="M32.8,16.9c1.2-1.5,1.9-3.4,1.7-5.3c-1.9,0.2-3.6,1.1-4.9,2.5c-1.2,1.4-1.9,3.3-1.7,5.1
						C29.8,19.2,31.6,18.4,32.8,16.9z"/>
				</g>
			</g>
			<g>
				<path d="M62.5,39.9h-7l-1.7,4.9h-2.9l6.6-18.3h3.1l6.6,18.3h-3L62.5,39.9z M56.2,37.6h5.5l-2.7-8H59L56.2,37.6z"/>
				<path d="M81.4,38.2c0,4.1-2.2,6.8-5.6,6.8c-1.7,0.1-3.4-0.8-4.2-2.3h-0.1v6.6h-2.7V31.5h2.6v2.2h0.1c0.9-1.5,2.5-2.4,4.2-2.4
					C79.2,31.4,81.4,34.1,81.4,38.2z M78.6,38.2c0-2.7-1.4-4.5-3.5-4.5c-2.1,0-3.5,1.8-3.5,4.5c0,2.7,1.4,4.5,3.5,4.5
					C77.2,42.7,78.6,40.9,78.6,38.2L78.6,38.2z"/>
				<path d="M96,38.2c0,4.1-2.2,6.8-5.6,6.8c-1.7,0.1-3.4-0.8-4.2-2.3h-0.1v6.6h-2.7V31.5h2.6v2.2h0.1c0.9-1.5,2.5-2.4,4.2-2.4
					C93.8,31.4,96,34.1,96,38.2z M93.2,38.2c0-2.7-1.4-4.5-3.5-4.5c-2.1,0-3.5,1.8-3.5,4.5c0,2.7,1.4,4.5,3.5,4.5
					C91.8,42.7,93.2,40.9,93.2,38.2z"/>
				<path d="M105.7,39.8c0.2,1.8,2,3,4.4,3c2.3,0,4-1.2,4-2.8c0-1.4-1-2.3-3.4-2.8l-2.4-0.6c-3.4-0.8-4.9-2.4-4.9-4.9
					c0-3.2,2.7-5.3,6.6-5.3c3.9,0,6.5,2.2,6.6,5.3h-2.8c-0.2-1.8-1.7-2.9-3.9-2.9s-3.7,1.1-3.7,2.7c0,1.3,1,2.1,3.3,2.6l2,0.5
					c3.7,0.9,5.3,2.4,5.3,5.1c0,3.4-2.7,5.6-7,5.6c-4.1,0-6.8-2.1-7-5.4L105.7,39.8z"/>
				<path d="M122.8,28.4v3.2h2.5v2.2h-2.5V41c0,1.1,0.5,1.7,1.6,1.7c0.3,0,0.6,0,0.9-0.1v2.2c-0.5,0.1-1,0.1-1.5,0.1
					c-2.7,0-3.7-1-3.7-3.6v-7.6h-1.9v-2.2h1.9v-3.2H122.8z"/>
				<path d="M126.8,38.2c0-4.2,2.5-6.8,6.3-6.8c3.9,0,6.3,2.6,6.3,6.8c0,4.2-2.4,6.8-6.3,6.8C129.3,45,126.8,42.4,126.8,38.2z
					 M136.7,38.2c0-2.9-1.3-4.6-3.5-4.6c-2.2,0-3.5,1.7-3.5,4.6c0,2.9,1.3,4.6,3.5,4.6C135.4,42.8,136.7,41.1,136.7,38.2L136.7,38.2
					z"/>
				<path d="M141.7,31.5h2.6v2.3h0.1c0.4-1.5,1.7-2.5,3.2-2.4c0.3,0,0.6,0,0.9,0.1v2.6c-0.4-0.1-0.8-0.2-1.2-0.2
					c-1.5-0.1-2.8,1.1-2.9,2.6c0,0.1,0,0.3,0,0.4v7.9h-2.7L141.7,31.5z"/>
				<path d="M161.1,40.9c-0.4,2.4-2.7,4.1-5.7,4.1c-3.9,0-6.3-2.6-6.3-6.8c0-4.2,2.4-6.9,6.2-6.9c3.7,0,6,2.5,6,6.6v0.9h-9.4V39
					c-0.2,1.9,1.2,3.6,3.1,3.8c0.1,0,0.3,0,0.4,0c1.3,0.1,2.6-0.6,3.1-1.9L161.1,40.9z M151.9,37h6.7c0.1-1.8-1.3-3.3-3-3.4
					c-0.1,0-0.2,0-0.2,0C153.4,33.6,151.9,35.1,151.9,37C151.9,36.9,151.9,37,151.9,37z"/>
			</g>
		</g>
	</g>
	<g id="_Group_4">
		<g>
			<path d="M55.9,12.8c2.1-0.2,4,1.5,4.2,3.6c0,0.3,0,0.5,0,0.8c0,2.8-1.5,4.4-4.1,4.4h-3.2v-8.8H55.9z M54.1,20.4h1.7
				c1.5,0.1,2.8-1.1,2.9-2.6c0-0.2,0-0.4,0-0.6c0.2-1.5-0.9-2.9-2.4-3.1c-0.2,0-0.4,0-0.5,0h-1.7V20.4z"/>
			<path d="M61.6,18.3c-0.2-1.7,1.1-3.3,2.8-3.4c1.7-0.2,3.3,1.1,3.4,2.8c0,0.2,0,0.4,0,0.6c0.2,1.7-1.1,3.3-2.8,3.4
				c-1.7,0.2-3.3-1.1-3.4-2.8C61.5,18.7,61.5,18.5,61.6,18.3z M66.5,18.3c0-1.4-0.6-2.3-1.8-2.3c-1.1,0-1.8,0.8-1.8,2.3
				c0,1.4,0.6,2.3,1.8,2.3C65.8,20.6,66.5,19.7,66.5,18.3L66.5,18.3z"/>
			<path d="M76.1,21.6h-1.4l-1.4-4.9h-0.1l-1.4,4.9h-1.3L68.7,15h1.3l1.2,5.1h0.1l1.4-5.1H74l1.4,5.1h0.1l1.2-5.1h1.3L76.1,21.6z"/>
			<path d="M79.5,15h1.3V16h0.1c0.3-0.8,1.1-1.2,2-1.2c1.2-0.1,2.2,0.8,2.3,2c0,0.2,0,0.3,0,0.5v4.3h-1.3v-4c0-1.1-0.5-1.6-1.4-1.6
				c-0.8,0-1.5,0.6-1.6,1.4c0,0.1,0,0.2,0,0.2v3.9h-1.3L79.5,15z"/>
			<path d="M87.2,12.4h1.3v9.2h-1.3V12.4z"/>
			<path d="M90.3,18.3c-0.2-1.7,1.1-3.3,2.8-3.4c1.7-0.2,3.3,1.1,3.4,2.8c0,0.2,0,0.4,0,0.6c0.2,1.7-1.1,3.3-2.8,3.4
				s-3.3-1.1-3.4-2.8C90.3,18.7,90.3,18.5,90.3,18.3z M95.2,18.3c0-1.4-0.6-2.3-1.8-2.3c-1.1,0-1.8,0.8-1.8,2.3
				c0,1.4,0.6,2.3,1.8,2.3C94.5,20.6,95.2,19.7,95.2,18.3z"/>
			<path d="M97.9,19.7c0-1.2,0.9-1.9,2.5-2l1.8-0.1v-0.6c0-0.7-0.5-1.1-1.4-1.1c-0.7,0-1.2,0.3-1.4,0.7h-1.3
				c0.1-1.1,1.2-1.9,2.7-1.9c1.7,0,2.6,0.8,2.6,2.2v4.5h-1.3v-0.9h-0.1c-0.4,0.7-1.2,1.1-2,1C99,21.8,98,21,97.9,19.9
				C97.9,19.9,97.9,19.8,97.9,19.7z M102.2,19.2v-0.6l-1.6,0.1c-0.9,0.1-1.3,0.4-1.3,1c0,0.6,0.5,0.9,1.2,0.9
				C101.3,20.7,102.1,20.1,102.2,19.2C102.2,19.2,102.2,19.2,102.2,19.2z"/>
			<path d="M105.2,18.3c0-2.1,1.1-3.4,2.7-3.4c0.8,0,1.6,0.4,2,1.2h0.1v-3.6h1.3v9.2h-1.3v-1H110c-0.4,0.7-1.2,1.2-2.1,1.2
				C106.3,21.7,105.2,20.4,105.2,18.3z M106.5,18.3c0,1.4,0.7,2.2,1.8,2.2c1.1,0,1.8-0.9,1.8-2.2c0-1.4-0.7-2.2-1.8-2.2
				C107.2,16.1,106.5,16.9,106.5,18.3L106.5,18.3z"/>
			<path d="M116.8,18.3c-0.2-1.7,1.1-3.3,2.8-3.4c1.7-0.2,3.3,1.1,3.4,2.8c0,0.2,0,0.4,0,0.6c0.2,1.7-1.1,3.3-2.8,3.4
				c-1.7,0.2-3.3-1.1-3.4-2.8C116.8,18.7,116.8,18.5,116.8,18.3z M121.7,18.3c0-1.4-0.6-2.3-1.8-2.3c-1.1,0-1.8,0.8-1.8,2.3
				c0,1.4,0.6,2.3,1.8,2.3C121,20.6,121.7,19.7,121.7,18.3z"/>
			<path d="M124.8,15h1.3V16h0.1c0.3-0.8,1.1-1.2,2-1.2c1.2-0.1,2.2,0.8,2.3,2c0,0.2,0,0.3,0,0.5v4.3h-1.3v-4c0-1.1-0.5-1.6-1.4-1.6
				c-0.8,0-1.5,0.6-1.6,1.4c0,0.1,0,0.2,0,0.2v3.9h-1.3V15z"/>
			<path d="M137.8,13.3V15h1.4v1.1h-1.4v3.4c0,0.7,0.3,1,0.9,1c0.2,0,0.3,0,0.5,0v1.1c-0.2,0-0.5,0.1-0.7,0.1c-1.5,0-2-0.5-2-1.8
				v-3.7h-1.1V15h1.1v-1.7H137.8z"/>
			<path d="M141,12.4h1.3v3.6h0.1c0.4-0.8,1.2-1.3,2-1.2c1.2-0.1,2.2,0.9,2.3,2.1c0,0.1,0,0.3,0,0.4v4.3h-1.3v-4
				c0-1.1-0.5-1.6-1.4-1.6c-0.9-0.1-1.6,0.6-1.7,1.4c0,0.1,0,0.2,0,0.3v3.9H141L141,12.4z"/>
			<path d="M154.3,19.8c-0.4,1.2-1.6,2.1-2.9,1.9c-1.7,0-3-1.3-3.1-2.9c0-0.2,0-0.3,0-0.5c-0.2-1.7,0.9-3.2,2.6-3.4
				c0.1,0,0.3,0,0.4,0c1.8,0,3,1.3,3,3.3v0.5h-4.7v0.1c-0.1,1,0.6,1.8,1.6,1.9c0.1,0,0.1,0,0.2,0c0.6,0.1,1.3-0.2,1.6-0.8
				L154.3,19.8z M149.7,17.7h3.3c0.1-0.9-0.6-1.6-1.5-1.7c-0.1,0-0.1,0-0.2,0C150.5,16,149.7,16.7,149.7,17.7
				C149.7,17.7,149.7,17.7,149.7,17.7L149.7,17.7z"/>
		</g>
	</g>
</g>
</svg>
