<svg  xmlns="http://www.w3.org/2000/svg"
	 viewBox="0 0 176.5 59" style="enable-background:new 0 0 176.5 59;">
<style type="text/css">
	.st0{fill:#FFFFFF;}
</style>
<g>
	<g id="livetype">
		<g>
			<g>
				<g>
					<path d="M162.3,0h-148c-0.5,0-1.1,0-1.6,0c-0.5,0-0.9,0-1.4,0c-1,0-2,0.1-2.9,0.3S6.4,0.8,5.5,1.2s-1.7,1-2.4,1.7
						C2.4,3.6,1.9,4.4,1.4,5.3S0.7,7.2,0.5,8.1c-0.2,1-0.3,2-0.3,2.9c0,0.5,0,0.9,0,1.4v34c0,0.5,0,0.9,0,1.4c0,1,0.1,2,0.3,2.9
						s0.5,1.9,0.9,2.8c0.4,0.9,1,1.7,1.7,2.4c0.7,0.7,1.5,1.3,2.4,1.7c0.9,0.4,1.8,0.8,2.8,0.9c1,0.2,2,0.3,2.9,0.3
						c0.5,0,0.9,0,1.4,0c0.5,0,1.1,0,1.6,0h148c0.5,0,1.1,0,1.6,0c0.4,0,0.9,0,1.4,0c1,0,2-0.1,2.9-0.3c1-0.2,1.9-0.5,2.8-0.9
						c0.9-0.4,1.7-1,2.4-1.7c0.7-0.7,1.3-1.5,1.7-2.4c0.4-0.9,0.8-1.8,0.9-2.8c0.2-1,0.3-2,0.3-2.9c0-0.5,0-0.9,0-1.4
						c0-0.5,0-1.1,0-1.6V14c0-0.5,0-1.1,0-1.6c0-0.5,0-0.9,0-1.4c0-1-0.1-2-0.3-2.9c-0.2-1-0.5-1.9-0.9-2.8
						c-0.9-1.8-2.4-3.2-4.1-4.1c-0.9-0.4-1.8-0.8-2.8-0.9c-1-0.2-2-0.3-2.9-0.3c-0.4,0-0.9,0-1.4,0C163.3,0,162.8,0,162.3,0L162.3,0
						L162.3,0z"/>
					<path class="st0" d="M12.6,57.6c-0.4,0-0.9,0-1.3,0c-0.9,0-1.8-0.1-2.8-0.2c-0.9-0.1-1.7-0.4-2.4-0.8C5.3,56.1,4.6,55.6,4,55
						S2.9,53.7,2.5,53s-0.7-1.6-0.8-2.4c-0.1-0.9-0.2-1.8-0.3-2.8c0-0.3,0-1.3,0-1.3v-34c0,0,0-1,0-1.3c0-0.9,0.1-1.8,0.3-2.8
						c0.1-0.9,0.4-1.7,0.8-2.4S3.4,4.5,4,3.9c0.6-0.6,1.3-1.1,2.1-1.5s1.6-0.7,2.4-0.8c0.9-0.1,1.8-0.2,2.8-0.2h1.3l151.2,0h1.3
						c0.9,0,1.8,0.1,2.7,0.3c0.9,0.1,1.7,0.4,2.5,0.8c1.5,0.8,2.8,2,3.6,3.6c0.4,0.8,0.6,1.6,0.8,2.4c0.1,0.9,0.2,1.8,0.3,2.8
						c0,0.4,0,0.9,0,1.3c0,0.6,0,1.1,0,1.6v30.8c0,0.5,0,1.1,0,1.6c0,0.5,0,0.9,0,1.4c0,0.9-0.1,1.8-0.3,2.7
						c-0.1,0.9-0.4,1.7-0.8,2.5c-0.4,0.8-0.9,1.4-1.5,2c-0.6,0.6-1.3,1.1-2.1,1.5c-0.8,0.4-1.6,0.7-2.5,0.8
						c-0.9,0.1-1.8,0.2-2.8,0.2c-0.4,0-0.9,0-1.3,0h-1.6L12.6,57.6L12.6,57.6z"/>
				</g>
				<g id="_Group_">
					<g id="_Group_2">
						<g id="_Group_3">
							<path id="_Path_" d="M37,29.3c0-2.6,1.4-5,3.6-6.4c-1.4-2-3.7-3.2-6.1-3.3c-2.6-0.3-5.1,1.5-6.4,1.5s-3.4-1.5-5.5-1.5
								c-2.9,0.1-5.5,1.7-6.8,4.2c-3,5.1-0.8,12.7,2.1,16.8c1.4,2,3.1,4.3,5.2,4.2c2.1-0.1,2.9-1.4,5.5-1.4s3.3,1.4,5.5,1.3
								c2.3,0,3.7-2,5.1-4.1c1-1.4,1.8-3,2.3-4.7C38.7,34.8,37,32.2,37,29.3L37,29.3z"/>
							<path id="_Path_2" d="M32.8,16.9c1.2-1.5,1.9-3.4,1.7-5.3c-1.9,0.2-3.6,1.1-4.9,2.5c-1.2,1.4-1.9,3.3-1.8,5.2
								C29.8,19.3,31.6,18.4,32.8,16.9L32.8,16.9z"/>
						</g>
					</g>
					<g>
						<path d="M62.5,39.9h-7l-1.7,4.9h-2.9l6.6-18.3h3.1l6.6,18.3h-3L62.5,39.9L62.5,39.9z M56.2,37.7h5.5l-2.7-8h-0.1
							C58.9,29.6,56.2,37.7,56.2,37.7z"/>
						<path d="M81.4,38.2c0,4.1-2.2,6.8-5.6,6.8c-1.7,0.1-3.4-0.8-4.2-2.3h-0.1v6.6h-2.7V31.6h2.6v2.2h0c0.9-1.5,2.5-2.4,4.2-2.4
							C79.1,31.4,81.4,34.1,81.4,38.2L81.4,38.2z M78.6,38.2c0-2.7-1.4-4.5-3.5-4.5s-3.5,1.8-3.5,4.5s1.4,4.5,3.5,4.5
							S78.6,40.9,78.6,38.2C78.6,38.2,78.6,38.2,78.6,38.2z"/>
						<path d="M96,38.2c0,4.1-2.2,6.8-5.6,6.8c-1.7,0.1-3.4-0.8-4.2-2.3h-0.1v6.6h-2.7V31.6h2.6v2.2h0c0.9-1.5,2.5-2.4,4.2-2.4
							C93.8,31.4,96,34.1,96,38.2L96,38.2z M93.2,38.2c0-2.7-1.4-4.5-3.5-4.5c-2.1,0-3.5,1.8-3.5,4.5s1.4,4.5,3.5,4.5
							C91.8,42.7,93.2,40.9,93.2,38.2z"/>
						<path d="M105.7,39.8c0.2,1.8,2,3,4.4,3s4-1.2,4-2.8c0-1.4-1-2.3-3.4-2.9l-2.4-0.6c-3.4-0.8-4.9-2.4-4.9-4.9
							c0-3.1,2.8-5.3,6.7-5.3s6.5,2.2,6.6,5.3h-2.8c-0.2-1.8-1.7-2.9-3.9-2.9s-3.7,1.1-3.7,2.7c0,1.3,1,2,3.3,2.6l2,0.5
							c3.8,0.9,5.3,2.4,5.3,5.1c0,3.4-2.7,5.6-7,5.6c-4,0-6.8-2.1-7-5.4L105.7,39.8L105.7,39.8z"/>
						<path d="M122.9,28.4v3.1h2.5v2.2h-2.5v7.3c0,1.1,0.5,1.7,1.6,1.7c0.3,0,0.6,0,0.9-0.1v2.1c-0.5,0.1-1,0.1-1.5,0.1
							c-2.7,0-3.8-1-3.8-3.6v-7.6h-1.9v-2.2h1.9v-3.1L122.9,28.4L122.9,28.4z"/>
						<path d="M126.8,38.2c0-4.2,2.5-6.8,6.3-6.8c3.8,0,6.3,2.6,6.3,6.8S137,45,133.2,45S126.8,42.4,126.8,38.2z M136.7,38.2
							c0-2.9-1.3-4.6-3.5-4.6c-2.2,0-3.5,1.7-3.5,4.6c0,2.9,1.3,4.6,3.5,4.6C135.4,42.8,136.7,41.1,136.7,38.2L136.7,38.2z"/>
						<path d="M141.8,31.6h2.6v2.3h0.1c0.4-1.5,1.7-2.5,3.2-2.4c0.3,0,0.6,0,0.9,0.1v2.6c-0.4-0.1-0.8-0.2-1.2-0.2
							c-1.5-0.1-2.8,1.1-2.9,2.6c0,0.1,0,0.3,0,0.4v7.9h-2.7V31.6L141.8,31.6z"/>
						<path d="M161.2,41c-0.4,2.4-2.7,4.1-5.7,4.1c-3.9,0-6.3-2.6-6.3-6.8s2.4-6.9,6.2-6.9c3.8,0,6,2.5,6,6.6v0.9h-9.4v0.2
							c-0.2,1.9,1.2,3.6,3.1,3.8c0.1,0,0.3,0,0.4,0c1.3,0.1,2.6-0.6,3.1-1.9L161.2,41L161.2,41z M151.9,37h6.7
							c0.1-1.8-1.3-3.3-3-3.4c-0.1,0-0.2,0-0.3,0C153.5,33.6,151.9,35.1,151.9,37C151.9,37,151.9,37,151.9,37L151.9,37z"/>
					</g>
				</g>
			</g>
			<g id="_Group_4">
				<g>
					<path d="M52.3,17.2c0-2.9,1.5-4.6,4-4.6c1.8-0.1,3.4,1.2,3.6,3h-1.4c-0.2-1.1-1.2-1.8-2.3-1.8c-1.6,0-2.6,1.3-2.6,3.3
						s1,3.3,2.6,3.3c1,0.1,2-0.6,2.3-1.6H60c-0.3,1.8-1.9,3-3.6,2.9C53.9,21.9,52.3,20.1,52.3,17.2z"/>
					<path d="M61.4,18.3c-0.2-1.7,1.1-3.3,2.8-3.4c1.7-0.2,3.3,1.1,3.4,2.8c0,0.2,0,0.4,0,0.6c0.2,1.7-1.1,3.3-2.8,3.4
						c-1.7,0.2-3.3-1.1-3.4-2.8C61.4,18.7,61.4,18.5,61.4,18.3z M66.3,18.3c0-1.4-0.6-2.3-1.8-2.3s-1.8,0.8-1.8,2.3
						c0,1.4,0.6,2.3,1.8,2.3C65.7,20.6,66.3,19.7,66.3,18.3z"/>
					<path d="M69.4,15h1.3v1.1h0.1c0.3-0.8,1.1-1.3,2-1.2c1.2-0.1,2.2,0.8,2.3,2c0,0.2,0,0.3,0,0.5v4.3h-1.3v-4
						c0-1.1-0.5-1.6-1.4-1.6c-0.8,0-1.5,0.6-1.6,1.4c0,0.1,0,0.2,0,0.2v3.9h-1.3V15z"/>
					<path d="M79.5,14.9c1.5,0,2.5,0.7,2.6,1.9h-1.3c-0.1-0.5-0.6-0.8-1.3-0.8s-1.3,0.4-1.3,0.9c0,0.4,0.3,0.6,1.1,0.8l1.1,0.3
						c1.3,0.3,1.9,0.8,1.9,1.8c0,1.3-1.2,2.1-2.8,2.1c-1.6,0-2.6-0.7-2.7-1.9h1.3c0.2,0.6,0.8,0.9,1.4,0.8c0.8,0,1.4-0.4,1.4-0.9
						c0-0.4-0.3-0.6-1-0.8l-1.2-0.3c-1.3-0.3-1.8-0.9-1.8-1.9C76.9,15.7,78,14.9,79.5,14.9L79.5,14.9z"/>
					<path d="M83.9,13.9l1.5-2.1H87l-1.7,2.1C85.2,13.9,83.9,13.9,83.9,13.9z M84,15h1.3v6.6H84V15z"/>
					<path d="M87.4,22.3h1.3c0.1,0.5,0.7,0.8,1.5,0.8c1.1,0,1.7-0.5,1.7-1.4v-1.3h-0.1c-0.4,0.7-1.2,1.2-2,1.1
						c-1.7,0-2.7-1.3-2.7-3.3s1.1-3.3,2.8-3.3c0.9,0,1.7,0.4,2.1,1.2H92V15h1.3v6.7c0,1.5-1.2,2.5-3.1,2.5
						C88.6,24.2,87.5,23.4,87.4,22.3L87.4,22.3z M92,18.2c0-1.3-0.7-2.2-1.8-2.2c-1.1,0-1.8,0.8-1.8,2.2c0,1.3,0.6,2.2,1.8,2.2
						C91.3,20.4,92,19.6,92,18.2z"/>
					<path d="M101,21.6h-1.3v-1.1h-0.1c-0.3,0.8-1.1,1.3-2,1.2c-1.2,0.1-2.2-0.8-2.3-2c0-0.1,0-0.3,0-0.5V15h1.3v4
						c0,1.1,0.4,1.6,1.4,1.6c0.8,0.1,1.6-0.5,1.6-1.4c0-0.1,0-0.2,0-0.3V15h1.3C101,15,101,21.6,101,21.6z"/>
					<path d="M108.6,19.8c-0.4,1.3-1.6,2.1-2.9,1.9c-1.7,0-3-1.3-3.1-2.9c0-0.2,0-0.3,0-0.5c-0.2-1.7,1-3.2,2.6-3.4
						c0.1,0,0.3,0,0.4,0c1.8,0,3,1.3,3,3.3v0.5H104v0.1c-0.1,1,0.6,1.8,1.6,1.9c0.1,0,0.1,0,0.2,0c0.6,0.1,1.3-0.2,1.6-0.8H108.6z
						 M104,17.7h3.3c0.1-0.9-0.6-1.6-1.5-1.7c-0.1,0-0.1,0-0.2,0C104.8,16,104,16.7,104,17.7C104,17.7,104,17.7,104,17.7L104,17.7z"
						/>
					<path d="M110.5,12.4h1.3v9.2h-1.3V12.4z"/>
					<path d="M113.7,18.3c-0.2-1.7,1.1-3.3,2.8-3.4c1.7-0.2,3.3,1.1,3.4,2.8c0,0.2,0,0.4,0,0.6c0.2,1.7-1.1,3.3-2.8,3.4
						c-1.7,0.2-3.3-1.1-3.4-2.8C113.6,18.7,113.6,18.5,113.7,18.3z M118.6,18.3c0-1.4-0.6-2.3-1.8-2.3s-1.8,0.8-1.8,2.3
						c0,1.4,0.6,2.3,1.8,2.3C117.9,20.6,118.6,19.7,118.6,18.3z"/>
					<path d="M130.9,19.8c-0.4,1.3-1.6,2.1-2.9,1.9c-1.7,0-3-1.3-3.1-2.9c0-0.2,0-0.3,0-0.5c-0.2-1.7,1-3.2,2.6-3.4
						c0.1,0,0.3,0,0.4,0c1.8,0,3,1.3,3,3.3v0.5h-4.7v0.1c-0.1,1,0.6,1.8,1.6,1.9c0.1,0,0.1,0,0.2,0c0.6,0.1,1.3-0.2,1.6-0.8H130.9z
						 M126.3,17.7h3.3c0.1-0.9-0.6-1.6-1.5-1.7c-0.1,0-0.1,0-0.2,0C127,16,126.3,16.7,126.3,17.7C126.3,17.7,126.3,17.7,126.3,17.7
						L126.3,17.7L126.3,17.7z"/>
					<path d="M132.7,15h1.3v1.1h0.1c0.3-0.8,1.1-1.3,2-1.2c1.2-0.1,2.2,0.8,2.3,2c0,0.2,0,0.3,0,0.5v4.3H137v-4
						c0-1.1-0.5-1.6-1.4-1.6c-0.8,0-1.5,0.6-1.6,1.4c0,0.1,0,0.2,0,0.2v3.9h-1.3C132.7,21.6,132.7,15,132.7,15z"/>
					<path d="M149.6,19.8c-0.4,1.3-1.6,2.1-2.9,1.9c-1.7,0-3-1.3-3.1-2.9c0-0.2,0-0.3,0-0.5c-0.2-1.7,1-3.2,2.6-3.4
						c0.1,0,0.3,0,0.4,0c1.8,0,3,1.3,3,3.3v0.5h-4.7v0.1c-0.1,1,0.6,1.8,1.6,1.9c0.1,0,0.1,0,0.2,0c0.6,0.1,1.3-0.2,1.6-0.8H149.6z
						 M144.9,17.7h3.3c0.1-0.9-0.6-1.6-1.5-1.7c-0.1,0-0.1,0-0.2,0C145.7,16,144.9,16.7,144.9,17.7
						C144.9,17.7,144.9,17.7,144.9,17.7L144.9,17.7L144.9,17.7z"/>
					<path d="M151.5,12.4h1.3v9.2h-1.3V12.4z"/>
				</g>
			</g>
		</g>
	</g>
</g>
</svg>
