<svg xmlns="http://www.w3.org/2000/svg" width="176" height="52.15" viewBox="0 0 176 52.15"><title>gplay_es</title><rect width="176" height="52.15" rx="6.52" ry="6.52" fill="#fff"/><path d="M169.48,1.47A5.47,5.47,0,0,1,175,6.94V46.06a5.47,5.47,0,0,1-5.48,5.47H6.52A5.47,5.47,0,0,1,1,46.06V6.94A5.47,5.47,0,0,1,6.52,1.47h163m0-1H6.52A6.53,6.53,0,0,0,0,6.94V46.06a6.53,6.53,0,0,0,6.52,6.51h163A6.53,6.53,0,0,0,176,46.06V6.94A6.53,6.53,0,0,0,169.48.43Z" transform="translate(0 -0.43)" fill="#a6a6a6"/><path d="M88.83,28.78a5.54,5.54,0,1,0,5.57,5.54A5.47,5.47,0,0,0,88.83,28.78Zm0,8.91A3.37,3.37,0,1,1,92,34.32,3.21,3.21,0,0,1,88.83,37.69ZM76.68,28.78a5.54,5.54,0,1,0,5.57,5.54A5.47,5.47,0,0,0,76.68,28.78Zm0,8.91a3.37,3.37,0,1,1,3.13-3.37A3.21,3.21,0,0,1,76.68,37.69Zm-14.44-7.2v2.35h5.63a4.9,4.9,0,0,1-1.28,3,5.75,5.75,0,0,1-4.34,1.72,6.26,6.26,0,0,1,0-12.52,6,6,0,0,1,4.24,1.68L68.14,25a8.16,8.16,0,0,0-5.9-2.38,8.62,8.62,0,1,0,0,17.24,7.88,7.88,0,0,0,6-2.41,7.78,7.78,0,0,0,2-5.5,7.27,7.27,0,0,0-.13-1.48H62.24Zm59.07,1.82a5.15,5.15,0,0,0-4.75-3.53,5.24,5.24,0,0,0-5.22,5.54,5.41,5.41,0,0,0,5.5,5.54,5.49,5.49,0,0,0,4.61-2.45l-1.89-1.26a3.15,3.15,0,0,1-2.72,1.54A2.83,2.83,0,0,1,114.15,36l7.42-3.06-.25-.63Zm-7.56,1.86a3,3,0,0,1,2.89-3.24,2.13,2.13,0,0,1,2.06,1.18Zm-6,5.37h2.43V23.24h-2.43Zm-4-9.52h-.08a3.84,3.84,0,0,0-2.92-1.24,5.55,5.55,0,0,0,0,11.1,3.76,3.76,0,0,0,2.92-1.27h.08v.8c0,2.12-1.14,3.26-3,3.26a3.06,3.06,0,0,1-2.79-2l-2.13.88a5.28,5.28,0,0,0,4.92,3.28c2.85,0,5.26-1.69,5.26-5.78v-10h-2.3Zm-2.81,7.67a3.19,3.19,0,0,1-3.09-3.34A3.22,3.22,0,0,1,100.93,31a3.12,3.12,0,0,1,3,3.38A3.09,3.09,0,0,1,100.93,37.69Zm31.8-14.45H126.9v16.3h2.44V33.36h3.4a5.07,5.07,0,1,0,0-10.12Zm.05,7.85h-3.45V25.5h3.45a2.79,2.79,0,1,1,0,5.58Zm15.05-2.33a4.57,4.57,0,0,0-4.34,2.49l2.16.9a2.62,2.62,0,0,1,4.77.89v.17a5.53,5.53,0,0,0-2.54-.62c-2.33,0-4.69,1.28-4.69,3.66a3.76,3.76,0,0,0,4,3.59,3.42,3.42,0,0,0,3.1-1.59h.08v1.26h2.34V33.27c0-2.9-2.16-4.51-4.95-4.51Zm-.3,8.93c-.8,0-1.91-.41-1.91-1.39,0-1.25,1.39-1.73,2.59-1.73a4.23,4.23,0,0,1,2.21.55,2.94,2.94,0,0,1-2.89,2.58Zm13.79-8.58-2.79,7.06h-.08l-2.89-7.06h-2.62L157.28,39l-2.48,5.49h2.54L164,29.11h-2.71Zm-21.9,10.43h2.44V23.24h-2.44Z" transform="translate(0 -0.43)"/><path d="M27,25.74,13.13,40.48h0a3.75,3.75,0,0,0,3.62,2.77,3.67,3.67,0,0,0,1.91-.52l0,0,15.61-9-7.31-8Z" transform="translate(0 -0.43)" fill="#ea4335"/><path d="M41.05,23.24h0L34.3,19.32l-7.6,6.76,7.63,7.63L41,29.84a3.77,3.77,0,0,0,2-3.3,3.71,3.71,0,0,0-2-3.29Z" transform="translate(0 -0.43)" fill="#fbbc04"/><path d="M13.13,12.52a3.91,3.91,0,0,0-.13,1v26a3.44,3.44,0,0,0,.13,1L27.48,26.13Z" transform="translate(0 -0.43)" fill="#4285f4"/><path d="M27.12,26.5l7.18-7.18-15.6-9a3.76,3.76,0,0,0-5.57,2.24h0l14,14Z" transform="translate(0 -0.43)" fill="#34a853"/><path d="M54.48,9.42h2.6a4.58,4.58,0,0,1,2.2.51,3.57,3.57,0,0,1,1.45,1.43,4.31,4.31,0,0,1,.5,2.12,4.27,4.27,0,0,1-.5,2.11A3.57,3.57,0,0,1,59.28,17a4.55,4.55,0,0,1-2.2.51h-2.6V9.41Zm2.58,6.91a2.86,2.86,0,0,0,2.13-.76A2.79,2.79,0,0,0,60,13.48a2.8,2.8,0,0,0-.77-2.09,2.89,2.89,0,0,0-2.13-.76h-1.3v5.7Z" transform="translate(0 -0.43)"/><path d="M62.89,9.42h4.93v1.21H64.16v2.25h3.29v1.2H64.16v2.24h3.66v1.21H62.89V9.41Z" transform="translate(0 -0.43)"/><path d="M70,17.14a3,3,0,0,1-1.11-1.66l1.2-.48a2.38,2.38,0,0,0,.64,1.1,1.59,1.59,0,0,0,1.11.43,1.65,1.65,0,0,0,1-.32,1,1,0,0,0,.41-.86,1,1,0,0,0-.36-.82,4.21,4.21,0,0,0-1.29-.65l-.51-.18a3.74,3.74,0,0,1-1.37-.82,2,2,0,0,1-.23-2.52,2.31,2.31,0,0,1,.91-.81,3,3,0,0,1,1.32-.3,2.61,2.61,0,0,1,1.7.52,2.52,2.52,0,0,1,.85,1.16l-1.15.49a1.43,1.43,0,0,0-1.39-1,1.46,1.46,0,0,0-.94.29.88.88,0,0,0,0,1.42,3.79,3.79,0,0,0,1.07.52l.51.17a4.14,4.14,0,0,1,1.62.95,2.18,2.18,0,0,1,.57,1.56,2.05,2.05,0,0,1-.41,1.33,2.36,2.36,0,0,1-1,.8,3.43,3.43,0,0,1-1.3.26A3,3,0,0,1,70,17.15Z" transform="translate(0 -0.43)"/><path d="M77.81,17.18a4,4,0,0,1-1.53-1.53,4.28,4.28,0,0,1-.56-2.15,4.18,4.18,0,0,1,.56-2.15,3.92,3.92,0,0,1,1.53-1.52A4.2,4.2,0,0,1,80,9.27a4,4,0,0,1,1.66.33,3.89,3.89,0,0,1,1.33,1l-.91.88a2.67,2.67,0,0,0-.92-.74,2.73,2.73,0,0,0-1.18-.25,3,3,0,0,0-1.48.38,2.7,2.7,0,0,0-1.07,1.05,3.44,3.44,0,0,0,0,3.18,2.73,2.73,0,0,0,1.07,1.06,3,3,0,0,0,1.48.38,2.88,2.88,0,0,0,2.31-1.14l.93.89a4.1,4.1,0,0,1-1.42,1.08,4.25,4.25,0,0,1-1.82.39,4.18,4.18,0,0,1-2.15-.56Z" transform="translate(0 -0.43)"/><path d="M87.06,9.42h1.45l3,8.12H90.15l-.73-2.07H86.15l-.74,2.07H84l3-8.12ZM89,14.3l-.86-2.41L87.83,11h-.06l-.32.94-.86,2.41H89Z" transform="translate(0 -0.43)"/><path d="M92.81,9.42h2.86A3,3,0,0,1,97,9.73a2.46,2.46,0,0,1,1,.89,2.43,2.43,0,0,1,.34,1.28,2.15,2.15,0,0,1-.53,1.45,2.47,2.47,0,0,1-1.31.84v.06l2.21,3.2v.07H97.19l-2.14-3.18h-1v3.18H92.84V9.4Zm2.82,3.77a1.34,1.34,0,0,0,1-.37A1.19,1.19,0,0,0,97,11.9a1.31,1.31,0,0,0-.15-.61,1.35,1.35,0,0,0-.46-.49,1.24,1.24,0,0,0-.7-.18H94.06V13.2h1.57Z" transform="translate(0 -0.43)"/><path d="M101.58,17.18A4.14,4.14,0,0,1,100,15.65a4.4,4.4,0,0,1,0-4.33,4,4,0,0,1,1.55-1.52,4.27,4.27,0,0,1,2.14-.56,4.34,4.34,0,0,1,1.71.32,3.68,3.68,0,0,1,1.33.92l-.89.88a2.46,2.46,0,0,0-1-.67,3.07,3.07,0,0,0-2.67.14,2.65,2.65,0,0,0-1.08,1.07,3.21,3.21,0,0,0-.41,1.59,3,3,0,0,0,.41,1.59,2.92,2.92,0,0,0,1.08,1.07,3,3,0,0,0,1.47.38,3.09,3.09,0,0,0,1.22-.22,3.39,3.39,0,0,0,.87-.58,2.36,2.36,0,0,0,.43-.62,2.75,2.75,0,0,0,.23-.83h-2.75V13.15h4a3.49,3.49,0,0,1,0,.65,4.7,4.7,0,0,1-.24,1.49,3,3,0,0,1-.75,1.22,3.94,3.94,0,0,1-3,1.22,4.27,4.27,0,0,1-2.14-.56Z" transform="translate(0 -0.43)"/><path d="M111.32,9.42h1.45l3,8.12h-1.41l-.73-2.07h-3.27l-.74,2.07h-1.41l3-8.12Zm2,4.88-.86-2.41-.32-.94H112l-.32.94-.86,2.41h2.42Z" transform="translate(0 -0.43)"/><path d="M117.07,9.42h2.86a3,3,0,0,1,1.33.31,2.46,2.46,0,0,1,.95.89,2.43,2.43,0,0,1,.34,1.28,2.19,2.19,0,0,1-.52,1.45,2.53,2.53,0,0,1-1.32.84v.06l2.22,3.2v.07h-1.48l-2.14-3.18h-1v3.18H117.1V9.4Zm2.83,3.77a1.35,1.35,0,0,0,1-.37,1.19,1.19,0,0,0,.39-.92,1.21,1.21,0,0,0-.16-.61,1.27,1.27,0,0,0-.46-.49,1.22,1.22,0,0,0-.7-.18h-1.6V13.2h1.56Z" transform="translate(0 -0.43)"/><path d="M126.67,9.42h4.93v1.21h-3.67v2.25h3.3v1.2h-3.3v2.24h3.67v1.21h-4.93V9.41Z" transform="translate(0 -0.43)"/><path d="M133.37,9.42h1.51l3.63,5.91h.06l-.06-1.57V9.42h1.26v8.12h-1.33l-3.81-6.22h-.06l.06,1.57v4.65h-1.25V9.42Z" transform="translate(0 -0.43)"/></svg>