<svg xmlns="http://www.w3.org/2000/svg" width="176" height="52.15" viewBox="0 0 176 52.15"><title>gplay_en</title><path d="M169.48,52.57H6.52A6.53,6.53,0,0,1,0,46.06V6.94A6.53,6.53,0,0,1,6.52.43h163A6.53,6.53,0,0,1,176,6.94V46.06a6.53,6.53,0,0,1-6.52,6.51" transform="translate(0 -0.43)" fill="#fff"/><path d="M169.48,1.47A5.49,5.49,0,0,1,175,6.94V46.06a5.48,5.48,0,0,1-5.48,5.47H6.52A5.48,5.48,0,0,1,1,46.06V6.94A5.49,5.49,0,0,1,6.52,1.47Zm0-1H6.52A6.53,6.53,0,0,0,0,6.94V46.06a6.53,6.53,0,0,0,6.52,6.51h163A6.53,6.53,0,0,0,176,46.06V6.94A6.53,6.53,0,0,0,169.48.43" transform="translate(0 -0.43)" fill="#a6a6a6"/><path d="M61.82,13.78a3.52,3.52,0,0,1-1,2.61A3.82,3.82,0,0,1,58,17.55a4,4,0,0,1-4.06-4.09A4,4,0,0,1,58,9.38a4.2,4.2,0,0,1,1.61.32,3.13,3.13,0,0,1,1.22.88l-.68.69A2.66,2.66,0,0,0,58,10.34a3,3,0,0,0-3,3.12,3,3,0,0,0,.9,2.26,3.1,3.1,0,0,0,4.32,0,2.39,2.39,0,0,0,.65-1.58H58v-.94h3.79a3,3,0,0,1,.06.59" transform="translate(0 -0.43)" fill="#fff"/><path d="M61.82,13.78a3.52,3.52,0,0,1-1,2.61A3.82,3.82,0,0,1,58,17.55a4,4,0,0,1-4.06-4.09A4,4,0,0,1,58,9.38a4.2,4.2,0,0,1,1.61.32,3.13,3.13,0,0,1,1.22.88l-.68.69A2.66,2.66,0,0,0,58,10.34a3,3,0,0,0-3,3.12,3,3,0,0,0,.9,2.26,3.1,3.1,0,0,0,4.32,0,2.39,2.39,0,0,0,.65-1.58H58v-.94h3.79A3,3,0,0,1,61.82,13.78Z" transform="translate(0 -0.43)"/><polygon points="67.83 10.09 64.27 10.09 64.27 12.57 67.48 12.57 67.48 13.51 64.27 13.51 64.27 15.99 67.83 15.99 67.83 16.95 63.26 16.95 63.26 9.13 67.83 9.13 67.83 10.09" fill="#fff"/><polygon points="67.83 10.09 64.27 10.09 64.27 12.57 67.48 12.57 67.48 13.51 64.27 13.51 64.27 15.99 67.83 15.99 67.83 16.95 63.26 16.95 63.26 9.13 67.83 9.13 67.83 10.09"/><polygon points="72.07 16.95 71.06 16.95 71.06 10.09 68.88 10.09 68.88 9.13 74.25 9.13 74.25 10.09 72.07 10.09 72.07 16.95" fill="#fff"/><polygon points="72.07 16.95 71.06 16.95 71.06 10.09 68.88 10.09 68.88 9.13 74.25 9.13 74.25 10.09 72.07 10.09 72.07 16.95"/><rect x="78.14" y="9.13" width="1.01" height="7.82" fill="#fff"/><rect x="78.14" y="9.13" width="1.01" height="7.82"/><polygon points="83.6 16.95 82.6 16.95 82.6 10.09 80.41 10.09 80.41 9.13 85.79 9.13 85.79 10.09 83.6 10.09 83.6 16.95" fill="#fff"/><polygon points="83.6 16.95 82.6 16.95 82.6 10.09 80.41 10.09 80.41 9.13 85.79 9.13 85.79 10.09 83.6 10.09 83.6 16.95"/><path d="M96,16.36a4,4,0,0,1-5.73,0,4,4,0,0,1-1.15-2.9,4,4,0,0,1,1.15-2.9,4.06,4.06,0,0,1,5.73,0,4,4,0,0,1,1.16,2.89A4,4,0,0,1,96,16.36m-5-.65a3,3,0,0,0,4.25,0,3.08,3.08,0,0,0,.87-2.25,3,3,0,0,0-.87-2.24,3,3,0,0,0-4.25,0,3,3,0,0,0-.87,2.24A3.08,3.08,0,0,0,91,15.71" transform="translate(0 -0.43)" fill="#fff"/><path d="M96,16.36a4,4,0,0,1-5.73,0,4,4,0,0,1-1.15-2.9,4,4,0,0,1,1.15-2.9,4.06,4.06,0,0,1,5.73,0,4,4,0,0,1,1.16,2.89A4,4,0,0,1,96,16.36Zm-5-.65a3,3,0,0,0,4.25,0,3.08,3.08,0,0,0,.87-2.25,3,3,0,0,0-.87-2.24,3,3,0,0,0-4.25,0,3,3,0,0,0-.87,2.24A3.08,3.08,0,0,0,91,15.71Z" transform="translate(0 -0.43)"/><polygon points="98.53 16.95 98.53 9.13 99.75 9.13 103.55 15.21 103.6 15.21 103.55 13.7 103.55 9.13 104.56 9.13 104.56 16.95 103.51 16.95 99.53 10.57 99.49 10.57 99.53 12.08 99.53 16.95 98.53 16.95" fill="#fff"/><polygon points="98.53 16.95 98.53 9.13 99.75 9.13 103.55 15.21 103.6 15.21 103.55 13.7 103.55 9.13 104.56 9.13 104.56 16.95 103.51 16.95 99.53 10.57 99.49 10.57 99.53 12.08 99.53 16.95 98.53 16.95"/><path d="M88.83,28.78a5.55,5.55,0,1,0,5.56,5.55,5.47,5.47,0,0,0-5.56-5.55m0,8.91A3.37,3.37,0,1,1,92,34.33a3.21,3.21,0,0,1-3.13,3.36M76.69,28.78a5.55,5.55,0,1,0,5.56,5.55,5.47,5.47,0,0,0-5.56-5.55m0,8.91a3.37,3.37,0,1,1,3.13-3.36,3.21,3.21,0,0,1-3.13,3.36m-14.45-7.2v2.35h5.63a4.93,4.93,0,0,1-1.28,3,5.76,5.76,0,0,1-4.35,1.72,6.26,6.26,0,0,1,0-12.52,6,6,0,0,1,4.25,1.68L68.15,25a8.24,8.24,0,0,0-5.91-2.37,8.61,8.61,0,1,0,0,17.22,7.88,7.88,0,0,0,6-2.41,7.77,7.77,0,0,0,2-5.51,7.14,7.14,0,0,0-.13-1.46Zm59.07,1.82a5.15,5.15,0,0,0-4.74-3.53,5.27,5.27,0,0,0-5.23,5.55,5.42,5.42,0,0,0,5.5,5.54,5.52,5.52,0,0,0,4.62-2.45l-1.89-1.26a3.17,3.17,0,0,1-2.73,1.53A2.83,2.83,0,0,1,114.15,36l7.41-3.07Zm-7.56,1.85a3,3,0,0,1,2.9-3.23,2.15,2.15,0,0,1,2.06,1.17Zm-6,5.38h2.44V23.24h-2.44Zm-4-9.52h-.08a3.86,3.86,0,0,0-2.92-1.24,5.55,5.55,0,0,0,0,11.09,3.77,3.77,0,0,0,2.92-1.26h.08v.8c0,2.12-1.13,3.26-3,3.26a3.06,3.06,0,0,1-2.79-2l-2.12.88a5.25,5.25,0,0,0,4.91,3.28c2.86,0,5.27-1.68,5.27-5.77v-10h-2.31Zm-2.79,7.67a3.37,3.37,0,0,1,0-6.72,3.12,3.12,0,0,1,3,3.38,3.1,3.1,0,0,1-3,3.34m31.78-14.45H126.9v16.3h2.43V33.36h3.39a5.07,5.07,0,1,0,0-10.12m.07,7.85h-3.46V25.51h3.46a2.79,2.79,0,1,1,0,5.58m15-2.34a4.58,4.58,0,0,0-4.34,2.5l2.16.9a2.31,2.31,0,0,1,2.22-1.2,2.35,2.35,0,0,1,2.56,2.1v.17a5.39,5.39,0,0,0-2.54-.63c-2.32,0-4.69,1.28-4.69,3.67a3.77,3.77,0,0,0,4,3.59,3.45,3.45,0,0,0,3.11-1.6h.08v1.26h2.35V33.26c0-2.89-2.16-4.51-5-4.51m-.29,8.94c-.8,0-1.91-.4-1.91-1.39,0-1.26,1.38-1.74,2.58-1.74a4.27,4.27,0,0,1,2.22.55,3,3,0,0,1-2.89,2.58m13.79-8.58-2.78,7.07h-.09l-2.89-7.07h-2.62L157.28,39l-2.48,5.49h2.54L164,29.11ZM139.41,39.54h2.44V23.24h-2.44Z" transform="translate(0 -0.43)"/><path d="M27,25.75,13.13,40.48h0a3.76,3.76,0,0,0,3.62,2.78,3.68,3.68,0,0,0,1.9-.52l.05,0,15.62-9Z" transform="translate(0 -0.43)" fill="#ea4335"/><path d="M41.05,23.24h0l-6.75-3.91-7.6,6.76,7.63,7.63L41,29.84a3.77,3.77,0,0,0,2-3.31,3.73,3.73,0,0,0-2-3.29" transform="translate(0 -0.43)" fill="#fbbc04"/><path d="M13.13,12.52a3.44,3.44,0,0,0-.13,1v26a3.42,3.42,0,0,0,.13,1L27.49,26.13Z" transform="translate(0 -0.43)" fill="#4285f4"/><path d="M27.11,26.5l7.18-7.18-15.6-9a3.76,3.76,0,0,0-5.56,2.25h0Z" transform="translate(0 -0.43)" fill="#34a853"/></svg>